<svg xmlns="http://www.w3.org/2000/svg" viewBox="0 0 512 512" role="img" aria-label="Zavora Fashion logo">
  <path fill="#f5a400" d="M123 118c58-12 178-13 262 3 12 76 8 170-4 266-72 13-180 10-260 1-15-79-14-185 2-270Z"/>
  <path fill="#f5a400" d="M100 145c15-17 268-24 306-5 14 40 10 221-7 261-46 16-251 13-297-1-18-55-16-210-2-255Z" opacity=".92"/>
  <path fill="#fff" d="M182 176h167l-102 116h99v52H166l103-116h-87v-52Z"/>
  <path fill="#f5a400" d="M139 127c-9 75-11 169-3 252l-24 4c-14-83-11-174 5-253l22-3Zm236 7 25 2c11 82 4 172-9 245l-23 1c12-77 16-166 7-248Z" opacity=".9"/>
</svg>
